<mxfile host="app.diagrams.net" modified="2023-08-21T15:34:01.620Z" agent="Mozilla/5.0 (Windows NT 10.0; Win64; x64; rv:109.0) Gecko/20100101 Firefox/116.0" etag="mVCS5EavtJ5G34EMJcC3" version="21.6.8" type="github">
  <diagram name="Page-1" id="7cH_J_7Wf-Z05YpNOZjw">
    <mxGraphModel dx="1050" dy="566" grid="0" gridSize="10" guides="1" tooltips="1" connect="1" arrows="1" fold="1" page="1" pageScale="1" pageWidth="850" pageHeight="1100" math="0" shadow="0">
      <root>
        <mxCell id="0" />
        <mxCell id="1" parent="0" />
        <mxCell id="MZ3ct2cmJWkrisRQSlVG-1" value="&lt;div align=&quot;left&quot;&gt;&lt;b&gt;&lt;font style=&quot;font-size: 16px;&quot;&gt;借用规则:&lt;/font&gt;&lt;/b&gt;&lt;/div&gt;" style="text;html=1;strokeColor=none;fillColor=none;align=left;verticalAlign=middle;whiteSpace=wrap;rounded=0;" vertex="1" parent="1">
          <mxGeometry x="222" y="70" width="108" height="30" as="geometry" />
        </mxCell>
        <mxCell id="MZ3ct2cmJWkrisRQSlVG-4" value="&lt;div align=&quot;left&quot;&gt;1. 借用者的生命周期不长于被借者的生命周期&lt;/div&gt;&lt;div align=&quot;left&quot;&gt;2. 同一时刻不能存在同一对象的多个可变借用&lt;/div&gt;&lt;div align=&quot;left&quot;&gt;3. 同一时刻也不能存在同一对象的可变借用和不可变借用&lt;br&gt;&lt;/div&gt;" style="text;html=1;strokeColor=none;fillColor=none;align=left;verticalAlign=middle;whiteSpace=wrap;rounded=0;" vertex="1" parent="1">
          <mxGeometry x="222" y="113" width="310" height="69" as="geometry" />
        </mxCell>
      </root>
    </mxGraphModel>
  </diagram>
</mxfile>
